<svg width="194.000000" height="18.000000" viewBox="0 0 194 18" fill="none" xmlns="http://www.w3.org/2000/svg" xmlns:xlink="http://www.w3.org/1999/xlink">
	<desc>
			Created with Pixso.
	</desc>
	<defs/>
	<path id="Vector" d="M3.51 0.04L1.26 0.04C0.56 0.04 0 0.6 0 1.28L0 3.49C0 4.17 0.56 4.72 1.26 4.72L3.51 4.72C4.21 4.72 4.77 4.17 4.77 3.49L4.77 1.28C4.77 0.6 4.21 0.04 3.51 0.04ZM9.89 0.12L7.63 0.12C6.94 0.12 6.37 0.67 6.37 1.36L6.37 3.57C6.37 4.25 6.94 4.8 7.63 4.8L9.89 4.8C10.59 4.8 11.15 4.25 11.15 3.57L11.15 1.36C11.15 0.67 10.59 0.12 9.89 0.12ZM16.35 0.17L14.1 0.17C13.4 0.17 12.84 0.72 12.84 1.41L12.84 3.62C12.84 4.3 13.4 4.85 14.1 4.85L16.35 4.85C17.05 4.85 17.61 4.3 17.61 3.62L17.61 1.41C17.61 0.72 17.05 0.17 16.35 0.17ZM3.51 6.51L1.26 6.51C0.56 6.51 0 7.06 0 7.74L0 9.95C0 10.64 0.56 11.19 1.26 11.19L3.51 11.19C4.21 11.19 4.77 10.64 4.77 9.95L4.77 7.74C4.77 7.06 4.21 6.51 3.51 6.51ZM10.16 6.57L7.91 6.57C7.21 6.57 6.65 7.13 6.65 7.81L6.65 10.02C6.65 10.7 7.21 11.25 7.91 11.25L10.16 11.25C10.86 11.25 11.42 10.7 11.42 10.02L11.42 7.81C11.42 7.13 10.86 6.57 10.16 6.57ZM16.33 6.7L14.08 6.7C13.38 6.7 12.82 7.26 12.82 7.94L12.82 10.15C12.82 10.83 13.38 11.38 14.08 11.38L16.33 11.38C17.03 11.38 17.59 10.83 17.59 10.15L17.59 7.94C17.59 7.26 17.03 6.7 16.33 6.7ZM9.99 12.92L7.73 12.92C7.04 12.92 6.47 13.47 6.47 14.16L6.47 16.37C6.47 17.05 7.04 17.6 7.73 17.6L9.99 17.6C10.68 17.6 11.25 17.05 11.25 16.37L11.25 14.16C11.25 13.47 10.68 12.92 9.99 12.92ZM16.5 12.92L14.24 12.92C13.54 12.92 12.98 13.47 12.98 14.16L12.98 16.37C12.98 17.05 13.54 17.6 14.24 17.6L16.5 17.6C17.19 17.6 17.76 17.05 17.76 16.37L17.76 14.16C17.76 13.47 17.19 12.92 16.5 12.92ZM3.78 12.96L1.35 12.96C0.6 12.96 0 13.51 0 14.19L0 16.4C0 17.08 0.6 17.64 1.35 17.64L3.78 17.64C4.53 17.64 5.14 17.08 5.14 16.4L5.14 14.19C5.14 13.51 4.53 12.96 3.78 12.96Z" fill="#FBFBFB" fill-opacity="1.000000" fill-rule="evenodd"/>
	<path id="Green.Harvest" d="M33.25 17C28.89 17 26 14.06 26 9.47C26 5 28.85 2 33.14 2C36.76 2 39.3 4.06 39.67 7.16L36.67 7.16C36.39 5.38 35 4.38 33.14 4.38C30.54 4.38 28.99 6.42 28.99 9.47C28.99 12.84 30.73 14.62 33.25 14.62C35.43 14.62 36.84 13.42 36.98 11.62L36.98 11.42L32.96 11.42L32.96 9.18L39.77 9.18L39.77 11.02C39.65 14.6 37.05 17 33.25 17ZM175.94 17C172.1 17 169.79 14.98 169.79 11.98L173.09 11.98C173.09 12 173.09 12.03 173.09 12.06C173.09 13.71 174.24 14.62 175.94 14.62C177.78 14.62 178.65 13.92 178.65 12.88C178.65 11.84 177.9 11.4 175.26 10.7C172.84 10.06 170.2 9.3 170.2 6.3C170.2 3.92 172.35 2 175.74 2C179.23 2 181.46 3.9 181.46 6.57L178.26 6.57C178.24 5.16 177.24 4.38 175.74 4.38C174.27 4.38 173.3 5.09 173.3 6.06C173.3 7.19 174.1 7.56 176.21 8.14C179.33 8.97 181.85 9.31 181.85 12.58C181.85 15.2 179.39 17 175.94 17ZM41.58 16.79L41.58 2.19L48.83 2.19C52.53 2.19 53.99 3.93 53.99 6.45C53.99 8.71 52.34 9.8 50.42 10.06L50.42 10.12C51.66 10.42 52.22 11.08 52.73 12.38C53.39 14.02 53.5 15.98 54.34 16.68L54.34 16.79L51.04 16.79C50.34 16.12 50.17 13.98 49.8 12.68C49.43 11.34 48.62 11.18 47.11 11.18L44.47 11.18L44.47 16.79L41.58 16.79ZM55.91 16.79L55.91 2.19L66.22 2.19L66.22 4.52L58.81 4.52L58.81 8L65.5 8L65.5 10.31L58.81 10.31L58.81 14.42L66.32 14.42L66.32 16.79L55.91 16.79ZM68.33 16.79L68.33 2.19L78.64 2.19L78.64 4.52L71.22 4.52L71.22 8L77.92 8L77.92 10.31L71.22 10.31L71.22 14.42L78.74 14.42L78.74 16.79L68.33 16.79ZM80.75 16.79L80.75 2.19L84.26 2.19L89.26 10.26C90.79 12.7 90.98 13.5 90.98 13.5L91.04 13.5L91 2.19L93.89 2.19L93.89 16.79L90.36 16.79L85.17 8.5C83.99 6.62 83.68 5.47 83.68 5.47L83.64 5.47L83.64 16.79L80.75 16.79ZM101.25 16.79L101.25 2.19L104.14 2.19L104.14 8.04L111.06 8.04L111.06 2.19L113.96 2.19L113.96 16.79L111.06 16.79L111.06 10.36L104.14 10.36L104.14 16.79L101.25 16.79ZM115.19 16.79L120.98 2.19L124.12 2.19L129.98 16.79L126.88 16.79L125.67 13.43L119.41 13.43L118.19 16.79L115.19 16.79ZM131.21 16.79L131.21 2.19L138.46 2.19C142.16 2.19 143.63 3.93 143.63 6.45C143.63 8.71 141.98 9.8 140.06 10.06L140.06 10.12C141.29 10.42 141.85 11.08 142.37 12.38C143.03 14.02 143.13 15.98 143.98 16.68L143.98 16.79L140.67 16.79C139.97 16.12 139.81 13.98 139.44 12.68C139.06 11.34 138.26 11.18 136.75 11.18L134.11 11.18L134.11 16.79L131.21 16.79ZM148.62 16.79L143.08 2.19L146.18 2.19C146.18 2.19 149.17 10.38 149.48 11.38C149.98 12.98 150.21 13.8 150.21 13.8L150.25 13.8C150.25 13.8 150.25 13.79 150.25 13.79C150.25 13.73 150.48 12.91 150.97 11.38C151.3 10.38 154.17 2.19 154.17 2.19L157.17 2.19L151.84 16.79L148.62 16.79ZM158.35 16.79L158.35 2.19L168.66 2.19L168.66 4.52L161.24 4.52L161.24 8L167.94 8L167.94 10.31L161.24 10.31L161.24 14.42L168.76 14.42L168.76 16.79L158.35 16.79ZM186.56 16.79L186.56 4.57L181.99 4.57L181.99 2.19L194 2.19L194 4.57L189.45 4.57L189.45 16.79L186.56 16.79ZM120.23 11.12L124.84 11.12L123.5 7.52C122.57 4.85 122.55 4.38 122.55 4.38L122.51 4.38C122.51 4.38 122.51 4.85 121.58 7.52L120.23 11.12ZM44.47 8.85L48.52 8.85C50.21 8.85 51 7.9 51 6.66C51 5.3 50.03 4.52 48.52 4.52L44.47 4.52L44.47 8.85ZM134.11 8.85L138.16 8.85C139.85 8.85 140.63 7.9 140.63 6.66C140.63 5.3 139.66 4.52 138.16 4.52L134.11 4.52L134.11 8.85ZM96.06 16.79L96.06 13.84L99.08 13.84L99.08 16.79L96.06 16.79Z" fill="#FBFBFB" fill-opacity="1.000000" fill-rule="evenodd"/>
</svg>
